<?xml version="1.0" encoding="UTF-8" standalone="no"?>
<svg
   width="16"
   height="16"
   fill="currentColor"
   class="bi bi-at"
   viewBox="0 0 16 16"
   version="1.1"
   id="svg4"
   sodipodi:docname="at.svg"
   inkscape:version="1.1 (c68e22c387, 2021-05-23)"
   xmlns:inkscape="http://www.inkscape.org/namespaces/inkscape"
   xmlns:sodipodi="http://sodipodi.sourceforge.net/DTD/sodipodi-0.dtd"
   xmlns="http://www.w3.org/2000/svg"
   xmlns:svg="http://www.w3.org/2000/svg">
  <defs
     id="defs8" />
  <sodipodi:namedview
     id="namedview6"
     pagecolor="#ffffff"
     bordercolor="#111111"
     borderopacity="1"
     inkscape:pageshadow="0"
     inkscape:pageopacity="0"
     inkscape:pagecheckerboard="1"
     showgrid="false"
     inkscape:zoom="54.5"
     inkscape:cx="7.9908257"
     inkscape:cy="8.0091743"
     inkscape:window-width="1920"
     inkscape:window-height="1057"
     inkscape:window-x="-8"
     inkscape:window-y="-8"
     inkscape:window-maximized="1"
     inkscape:current-layer="svg4" />
  <path
     d="M13.106 7.222c0-2.967-2.249-5.032-5.482-5.032-3.35 0-5.646 2.318-5.646 5.702 0 3.493 2.235 5.708 5.762 5.708.862 0 1.689-.123 2.304-.335v-.862c-.43.199-1.354.328-2.29.328-2.926 0-4.813-1.88-4.813-4.798 0-2.844 1.921-4.881 4.594-4.881 2.735 0 4.608 1.688 4.608 4.156 0 1.682-.554 2.769-1.416 2.769-.492 0-.772-.28-.772-.76V5.206H8.923v.834h-.11c-.266-.595-.881-.964-1.6-.964-1.4 0-2.378 1.162-2.378 2.823 0 1.737.957 2.906 2.379 2.906.8 0 1.415-.39 1.709-1.087h.11c.081.67.703 1.148 1.503 1.148 1.572 0 2.57-1.415 2.57-3.643zm-7.177.704c0-1.197.54-1.907 1.456-1.907.93 0 1.524.738 1.524 1.907S8.308 9.84 7.371 9.84c-.895 0-1.442-.725-1.442-1.914z"
     id="path2"
     style="fill:#ffffff" />
</svg>
